<svg xmlns="http://www.w3.org/2000/svg" viewBox="0 0 64 64"><g data-name="food and drink"><path d="M60 38a1 1 0 0 0 1-1v-1a10.011 10.011 0 0 0-10-10H34a9.947 9.947 0 0 0-1.2.08L33.918 13H35a1 1 0 0 0 1-1V8a1 1 0 0 0-1-1h-1.219l-.811-3.242A1 1 0 0 0 32 3H7a1 1 0 0 0-.895.553L4.382 7H4a1 1 0 0 0-1 1v4a1 1 0 0 0 1 1h1.082L8 47.085A1 1 0 0 0 9 48h18v2h-2a1 1 0 0 0-1 1 10.011 10.011 0 0 0 10 10h17a10.014 10.014 0 0 0 10-10 1 1 0 0 0-1-1h-2v-2.142a3.981 3.981 0 0 0 0-7.716V38Zm-9-10a8.009 8.009 0 0 1 8 8H26a8.039 8.039 0 0 1 8-8ZM7.618 5h23.6l.5 2h-25.1ZM5 9h29v2H5Zm4.918 37L7.089 13h24.822l-1.162 13.552-.069.027a9.881 9.881 0 0 0-1.818.858 10 10 0 0 0-4.815 7.642c-.029.3-.047.611-.047.921v1a1 1 0 0 0 1 1h2v2.127A4.026 4.026 0 0 0 24.537 46ZM56.65 56.655A7.905 7.905 0 0 1 51 59H34a8.014 8.014 0 0 1-7.938-7H45v1.5a3.5 3.5 0 0 0 7 0V52h6.938a7.889 7.889 0 0 1-2.288 4.655ZM51 50a1 1 0 0 0-1 1v2.5a1.5 1.5 0 0 1-3 0V51a1 1 0 0 0-1-1H29v-2h27v2Zm8-6a2 2 0 0 1-2 2H28a2 2 0 0 1 0-4h5.675l5.237 3.809a1 1 0 0 0 1.176 0L43 43.691l2.912 2.118a1 1 0 0 0 1.176 0L52.325 42H57a2 2 0 0 1 2 2Zm-18.325-2 .624.454-1.8 1.31L37.075 42Zm3.4 0h4.85L46.5 43.764ZM56 40H29v-2h27Z"/><path d="M31 32c0 .552.448 2 1 2s1-1.448 1-2a1 1 0 0 0-2 0zm6 0c.552 0 1-1.448 1-2a1 1 0 0 0-2 0c0 .552.448 2 1 2zm6 2c.552 0 1-1.448 1-2a1 1 0 0 0-2 0c0 .552.448 2 1 2zm11 0c.553 0 1-1.448 1-2a1 1 0 0 0-2 0c0 .552.449 2 1 2zm-5-2c.552 0 1-1.448 1-2a1 1 0 0 0-2 0c0 .552.448 2 1 2zM19.5 16a6 6 0 1 0 6 6 6.006 6.006 0 0 0-6-6zm0 10a4 4 0 1 1 4-4 4 4 0 0 1-4 4z"/></g></svg>