<svg xmlns="http://www.w3.org/2000/svg" enable-background="new 0 0 64 64" viewBox="0 0 64 64"><path d="M47.3515625 50.0003052C47.3510132 50.0003052 47.350647 50 47.3500977 50h-.0014648H16.6513672h-.0014648c-.0005493 0-.0009155.0003052-.0014648.0003052C14.0848389 50.0018921 12 52.0878906 12 54.6513672v2.6972656C12 59.9130859 14.0864258 62 16.6513672 62h30.6972656C49.9135742 62 52 59.9130859 52 57.3486328v-2.6972656C52 52.0878906 49.9151611 50.0018921 47.3515625 50.0003052zM50 57.3486328C50 58.8105469 48.8105469 60 47.3486328 60H16.6513672C15.1894531 60 14 58.8105469 14 57.3486328v-2.6972656C14 53.1894531 15.1894531 52 16.6513672 52h30.6972656C48.8105469 52 50 53.1894531 50 54.6513672V57.3486328zM53 37v-2c0-1.6542969-1.3457031-3-3-3H14c-1.6542969 0-3 1.3457031-3 3v2c0 .9814453.4974365 1.8748169 1.2670288 2.4279175C12.0977173 39.9343262 12 40.4629517 12 41c0 1.15271.4190063 2.2537842 1.1325684 3.1339111C13.0471191 44.4147949 13 44.7058105 13 45v3c0 .5527344.4477539 1 1 1s1-.4472656 1-1v-2.4150391c.0213623.0092163.0441895.0134277.0656738.0223389.2171021.090271.4380493.1691284.6638184.225708C17.0908203 46.2158203 18.7832031 45.9111328 20 44.9960938c1.7177734 1.2910156 4.2822266 1.2910156 6 0 1.7177734 1.2910156 4.2822266 1.2910156 6 0 1.7177734 1.2910156 4.2822266 1.2910156 6 0 1.7177734 1.2910156 4.2822266 1.2910156 6 0C44.8588867 45.6416016 45.9101563 46 47 46c.4545898 0 .8701172-.0546875 1.2426758-.1601563.2349243-.0587769.4619751-.1394043.6838379-.2310181C48.9503784 45.598938 48.9763184 45.5942383 49 45.5839844V48c0 .5527344.4477539 1 1 1s1-.4472656 1-1v-3c0-.2944336-.0471802-.5856934-.1327515-.8667603C51.5826416 43.2496338 52 42.1503296 52 41c0-.5366821-.0975342-1.0648804-.2666016-1.5709839C52.5018311 38.8764038 53 37.9822388 53 37zM13 35c0-.5517578.4487305-1 1-1h36c.5512695 0 1 .4482422 1 1v2c0 .4628906-.3310547.8730469-.7807617.9726563C50.1318359 37.9912109 50.0644531 38 50 38H14c-.0628052 0-.1293945-.0090332-.213562-.0266113C13.3307495 37.8726196 13 37.4626465 13 37V35zM47.7294922 43.9072266C47.5078125 43.9697266 47.269043 44 47 44c-.8588867 0-1.6787109-.3720703-2.2490234-1.0205078C44.5610352 42.7636719 44.2875977 42.6396484 44 42.6396484s-.5610352.1240234-.7509766.3398438C42.6787109 43.6279297 41.8588867 44 41 44s-1.6787109-.3720703-2.2490234-1.0205078c-.3798828-.4316406-1.1220703-.4316406-1.5019531 0C36.6787109 43.6279297 35.8588867 44 35 44s-1.6787109-.3720703-2.2490234-1.0205078c-.3798828-.4316406-1.1220703-.4316406-1.5019531 0C30.6787109 43.6279297 29.8588867 44 29 44s-1.6787109-.3720703-2.2490234-1.0205078c-.3798828-.4316406-1.1220703-.4316406-1.5019531 0C24.6787109 43.6279297 23.8588867 44 23 44s-1.6787109-.3720703-2.2490234-1.0205078c-.3798828-.4316406-1.1220703-.4316406-1.5019531 0-.7495117.8515625-1.9599609 1.2109375-3.0063477.9208984-.4750977-.1191406-.9111328-.3544922-1.2685547-.6884766C14.3461914 42.6376953 14 41.8525391 14 41c0-.3408203.0595703-.6796875.1738281-1h35.6523438C49.9404297 40.3203125 50 40.6591797 50 41c0 .8525391-.3461914 1.6376953-.9824219 2.2197266C48.668457 43.5458984 48.2324219 43.78125 47.7294922 43.9072266zM13 30c.5522461 0 1-.4472656 1-1 0-6.0654297 4.9345703-11 11-11h14c6.0654297 0 11 4.9345703 11 11 0 .5527344.4477539 1 1 1s1-.4472656 1-1c0-7.1679688-5.831543-13-13-13h-6v-4h13c.5522461 0 1-.4472656 1-1V3c0-.5527344-.4477539-1-1-1H32c-.5522461 0-1 .4472656-1 1v8 5h-6c-7.168457 0-13 5.8320313-13 13C12 29.5527344 12.4477539 30 13 30zM45 10H33V4h12V10z"/><path d="M32.7099609 20.2900391c-.2802734-.2705078-.7202148-.3603516-1.090332-.2099609-.1298828.0498047-.2299805.1201172-.3295898.2099609C31.1098633 20.4794922 31 20.7402344 31 21c0 .2695313.0996094.5195313.2900391.7099609C31.4799805 21.8994141 31.7299805 22 32 22s.5200195-.1005859.7099609-.2900391C32.8999023 21.5195313 33 21.2695313 33 21 33 20.7402344 32.8896484 20.4794922 32.7099609 20.2900391zM40.7099609 20.2900391c-.2802734-.2705078-.7202148-.3603516-1.090332-.2099609-.1298828.0498047-.2299805.1201172-.3295898.2099609C39.1098633 20.4794922 39 20.7402344 39 21c0 .2695313.0996094.5195313.2900391.7099609C39.4799805 21.8994141 39.7299805 22 40 22s.5200195-.1005859.7099609-.2900391c.0898438-.1005859.159668-.2099609.2099609-.3300781C40.9697266 21.2597656 41 21.1298828 41 21 41 20.7402344 40.8896484 20.4794922 40.7099609 20.2900391zM24.7099609 20.2900391C24.6098633 20.2001953 24.5 20.1298828 24.3798828 20.0800781c-.3701172-.1503906-.8100586-.0605469-1.0898438.2099609C23.1098633 20.4794922 23 20.7402344 23 21c0 .1298828.0200195.2597656.0795898.3798828C23.1298828 21.5 23.199707 21.609375 23.2900391 21.7099609 23.4799805 21.8994141 23.7299805 22 24 22s.5200195-.1005859.7099609-.2900391C24.8999023 21.5195313 25 21.2695313 25 21 25 20.7402344 24.8896484 20.4794922 24.7099609 20.2900391zM35.2900391 24.2900391c-.090332.0996094-.1601563.2001953-.2104492.3300781C35.0297852 24.7402344 35 24.8701172 35 25c0 .2695313.0996094.5195313.2900391.7099609C35.4799805 25.8994141 35.7299805 26 36 26s.5200195-.1005859.7099609-.2900391C36.8999023 25.5195313 37 25.2695313 37 25c0-.1298828-.0302734-.2597656-.0800781-.3798828-.050293-.1298828-.1201172-.2304688-.2099609-.3300781C36.3295898 23.9199219 35.659668 23.9199219 35.2900391 24.2900391zM43.2900391 24.2900391c-.090332.0996094-.1601563.2001953-.2104492.3300781C43.0297852 24.7402344 43 24.8701172 43 25c0 .2695313.0996094.5195313.2900391.7099609C43.4799805 25.8994141 43.7299805 26 44 26s.5200195-.1005859.7099609-.2900391C44.8999023 25.5195313 45 25.2695313 45 25c0-.1298828-.0302734-.2597656-.0800781-.3798828-.050293-.1298828-.1201172-.2304688-.2099609-.3300781C44.3295898 23.9199219 43.6699219 23.9199219 43.2900391 24.2900391zM27.2900391 24.2900391c-.090332.0996094-.1601563.2001953-.2104492.3300781C27.0297852 24.7402344 27 24.8701172 27 25c0 .2695313.0996094.5195313.2900391.7099609C27.4799805 25.8994141 27.7299805 26 28 26s.5200195-.1005859.7099609-.2900391C28.8999023 25.5195313 29 25.2695313 29 25c0-.1298828-.0302734-.2597656-.0800781-.3798828-.050293-.1298828-.1201172-.2304688-.2099609-.3300781C28.3295898 23.9199219 27.6699219 23.9199219 27.2900391 24.2900391zM19.2900391 24.2900391c-.090332.0996094-.1601563.2001953-.2104492.3300781C19.0297852 24.7402344 19 24.8701172 19 25c0 .2695313.0996094.5195313.2900391.7099609C19.4799805 25.8994141 19.7299805 26 20 26s.5200195-.1005859.7099609-.2900391C20.8999023 25.5195313 21 25.2695313 21 25c0-.1298828-.0302734-.2597656-.0800781-.3798828-.050293-.1298828-.1201172-.2304688-.2099609-.3300781C20.3295898 23.9199219 19.6699219 23.9199219 19.2900391 24.2900391zM39.2900391 28.2900391C39.1098633 28.4794922 39 28.7402344 39 29c0 .2695313.0996094.5195313.2900391.7099609C39.4799805 29.8994141 39.7299805 30 40 30s.5200195-.1005859.7099609-.2900391C40.8999023 29.5195313 41 29.2695313 41 29c0-.2597656-.1103516-.5205078-.2900391-.7099609C40.3398438 27.9199219 39.659668 27.9199219 39.2900391 28.2900391zM47.2900391 28.2900391C47.1098633 28.4794922 47 28.7402344 47 29c0 .2695313.0996094.5195313.2900391.7099609.0996094.0898438.2099609.1601563.3295898.2099609C47.7397461 29.9697266 47.8696289 30 48 30c.2700195 0 .5200195-.1005859.7099609-.2900391C48.8999023 29.5195313 49 29.2695313 49 29c0-.2597656-.1103516-.5205078-.2900391-.7099609C48.3398438 27.9199219 47.659668 27.9199219 47.2900391 28.2900391zM31.6196289 28.0800781c-.1298828.0498047-.2299805.1201172-.3295898.2099609C31.1098633 28.4794922 31 28.7402344 31 29c0 .1298828.0297852.2597656.0795898.3798828C31.1298828 29.5 31.199707 29.609375 31.2900391 29.7099609 31.4799805 29.8994141 31.7299805 30 32 30s.5200195-.1005859.7099609-.2900391C32.8999023 29.5195313 33 29.2695313 33 29c0-.2597656-.1103516-.5205078-.2900391-.7099609C32.4296875 28.0097656 31.9897461 27.9199219 31.6196289 28.0800781zM23.2900391 28.2900391C23.1098633 28.4794922 23 28.7402344 23 29c0 .2695313.0996094.5195313.2900391.7099609C23.4799805 29.8994141 23.7299805 30 24 30s.5200195-.1005859.7099609-.2900391C24.8999023 29.5195313 25 29.2695313 25 29c0-.2597656-.1103516-.5205078-.2900391-.7099609C24.3295898 27.9199219 23.659668 27.9199219 23.2900391 28.2900391zM15.6196289 28.0800781C15.5 28.1298828 15.3896484 28.2001953 15.2900391 28.2900391 15.1098633 28.4794922 15 28.7402344 15 29c0 .2695313.0996094.5195313.2900391.7099609C15.4799805 29.8994141 15.7299805 30 16 30s.5200195-.1005859.7099609-.2900391C16.8999023 29.5195313 17 29.2695313 17 29c0-.2597656-.1103516-.5205078-.2900391-.7099609C16.4296875 28.0097656 15.9897461 27.9199219 15.6196289 28.0800781z"/></svg>