<svg xmlns="http://www.w3.org/2000/svg" viewBox="0 0 32 32"><path d="M20.5 10.039h-9c-1.103 0-2-.897-2-2s.897-2 2-2h9c1.103 0 2 .897 2 2s-.897 2-2 2zm-9-3a1.001 1.001 0 0 0 0 2h9a1.001 1.001 0 0 0 0-2h-9z"/><path d="M19.5 7.039h-6c-1.654 0-3-1.346-3-3a3.013 3.013 0 0 1 2.939-2.995.479.479 0 0 1 .415.207.499.499 0 0 1 .066.459 1.001 1.001 0 0 0-.062.33c0 .551.448 1 1 1H19.5c1.103 0 2 .897 2 2s-.897 1.999-2 1.999zm-6.638-4.891A2.01 2.01 0 0 0 11.5 4.039c0 1.103.897 2 2 2h6a1.001 1.001 0 0 0 0-2h-4.641a2.002 2.002 0 0 1-1.997-1.891zM16 30.956a1.477 1.477 0 0 1-1.479-1.253l-2.47-12.851a2.506 2.506 0 0 1-1.551-2.313v-1.585c-.582-.207-1-.763-1-1.415v-2a.5.5 0 0 1 .5-.5h12a.5.5 0 0 1 .5.5v2c0 .652-.418 1.208-1 1.415v1.585a2.506 2.506 0 0 1-1.551 2.313l-2.472 12.863A1.474 1.474 0 0 1 16 30.956zm-2.896-13.928 2.401 12.498c.068.41.425.43.495.43s.427-.02.493-.417l2.403-12.51a.501.501 0 0 1 .104-.99c.827 0 1.5-.673 1.5-1.5v-2a.5.5 0 0 1 .5-.5.5.5 0 0 0 .5-.5v-1.5h-11v1.5a.5.5 0 0 0 .5.5.5.5 0 0 1 .5.5v2c0 .827.673 1.5 1.5 1.5a.5.5 0 0 1 .104.989z"/><path d="M18 13.039h-7a.5.5 0 0 1 0-1h7a.5.5 0 0 1 0 1zm-1 4h-4a.5.5 0 0 1 0-1h4a.5.5 0 0 1 0 1z"/></svg>