<svg xmlns="http://www.w3.org/2000/svg" viewBox="0 0 64 64"><path d="M14.84594 37.45229L13.1604 36.37612A79.978 79.978 0 0137.33911 12.1974L38.41626 13.883A77.9608 77.9608 0 0014.84594 37.45229zM43.09936 34.79506a4.66472 4.66472 0 01-3.32129-1.376h0a4.69639 4.69639 0 113.32129 1.376zm0-7.39258A2.69584 2.69584 0 0041.19214 32.005h0a2.76088 2.76088 0 003.81445 0 2.69532 2.69532 0 00-1.90723-4.60254zM28.28491 39.66322A3.44286 3.44286 0 0125.8352 38.6476h-.00049a3.46512 3.46512 0 01.00049-4.89941 3.54858 3.54858 0 014.8999 0 3.46533 3.46533 0 01-2.45019 5.915zm0-4.92968a1.46462 1.46462 0 00-1.03565 2.5h.00049a1.50093 1.50093 0 002.07129 0 1.46436 1.46436 0 00-1.03613-2.5zM37.87085 45.76088a3.45134 3.45134 0 01-2.44971-1.01269h-.001a3.47105 3.47105 0 112.45069 1.01269zm-1.03614-2.42676a1.465 1.465 0 10-.00048-2.07226A1.46822 1.46822 0 0036.83471 43.33412z"/><rect width="2" height="5.512" x="32.661" y="27.642" transform="rotate(-26.565 33.66 30.398)"/><rect width="1.742" height="2" x="34.638" y="22.62" transform="rotate(-45 35.51 23.62)"/><rect width="2.756" height="2" x="22.424" y="31.246" transform="rotate(-26.565 23.802 32.246)"/><path d="M37.62719,55.76283a2.63552,2.63552,0,0,1-2.10888-1.12011,2.81939,2.81939,0,0,1-.23047-2.97364,5.18273,5.18273,0,0,0-.104-2.73242,4.59067,4.59067,0,0,0-2.40772-2.36133q-1.60473-.70458-3.18555-1.38574a2.75331,2.75331,0,0,0-.03369.43164,12.09985,12.09985,0,0,0,.49024,2.60938c.23535.94531.52832,2.12109.84033,3.69043.44433,2.22265-.54444,3.09375-1.17334,3.415-1.561.79882-3.86377-.20313-5.186-1.63086a3.39848,3.39848,0,0,1-.70459-4.20313c1.65577-2.7041.58545-5.74316.17432-6.69531-4.40332-1.8457-8.52-3.49414-12.24268-4.90234a3.18249,3.18249,0,0,1-2.08349-1.748,6.39256,6.39256,0,0,1-.07569-5.38965A45.9088,45.9088,0,0,1,31.56274,8.797a6.399,6.399,0,0,1,5.395.07325,3.18307,3.18307,0,0,1,1.74756,2.083c1.68018,4.42871,3.62549,9.25293,5.78223,14.34082l-1.8418.78125c-2.1792-5.14257-4.144-10.01757-5.84033-14.49121a.992.992,0,0,1-.0503-.18457,1.25965,1.25965,0,0,0-.727-.75781,4.35024,4.35024,0,0,0-3.6206-.03223,43.90764,43.90764,0,0,0-20.999,21.00293,4.35029,4.35029,0,0,0,.03418,3.61426,1.26009,1.26009,0,0,0,.75831.72754.99519.99519,0,0,1,.1831.04981c3.86572,1.46093,8.15283,3.17871,12.74268,5.10742a1.00307,1.00307,0,0,1,.49365.44824c.103.19238,2.501,4.75293-.09082,8.9873-.39453.64454.03564,1.334.46631,1.79981.94775,1.02344,2.356,1.43555,2.80859,1.208.2041-.1045.25147-.5918.12158-1.24219-.30322-1.52344-.58935-2.67481-.81982-3.59961a13.12969,13.12969,0,0,1-.54932-3.0918,5.41262,5.41262,0,0,1,.48731-2.17871.99975.99975,0,0,1,1.31543-.5293q2.08593.895,4.22168,1.832A6.5126,6.5126,0,0,1,37.03,48.16713a6.77508,6.77508,0,0,1,.04687,4.39649.82841.82841,0,0,0,.05664.89941.61584.61584,0,0,0,.55127.29492c.25244-.03906.50928-.37988.68653-.91211,1.0371-3.11035,1.35742-4.13281,1.36035-4.1416a1.00613,1.00613,0,0,1,1.37256-.61523c2.87939,1.31054,5.7998,2.64062,8.71093,3.99121a2.59921,2.59921,0,0,0,3.06592-3.06739c-2.86816-6.209-5.32519-11.65625-7.51074-16.65234l1.832-.80078c2.1875,4.99805,4.648,10.45312,7.52246,16.67578a.87888.87888,0,0,1,.04443.11328,4.58083,4.58083,0,0,1-5.61914,5.61914,1.00336,1.00336,0,0,1-.11523-.04492c-2.584-1.19922-5.17627-2.38281-7.74023-3.5498-.21436.65722-.543,1.65625-1.02588,3.10546a2.93145,2.93145,0,0,1-2.27637,2.25586A2.42082,2.42082,0,0,1,37.62719,55.76283Z"/></svg>